<?xml version="1.0" encoding="iso-8859-1"?>
<!-- Uploaded to: SVG Repo, www.svgrepo.com, Generator: SVG Repo Mixer Tools -->
<svg height="800px" width="800px" version="1.1" id="Layer_1" xmlns="http://www.w3.org/2000/svg" xmlns:xlink="http://www.w3.org/1999/xlink" 
	 viewBox="0 0 504 504" xml:space="preserve">
<circle style="fill:#324A5E;" cx="252" cy="252" r="252"/>
<path style="fill:#E6E9EE;" d="M378.8,198c0,70-126.8,230.6-126.8,230.6S125.2,268.1,125.2,198c0-70,56.8-126.8,126.8-126.8
	S378.8,128,378.8,198z"/>
<path style="fill:#FF7058;" d="M252,133.9L252,133.9L252,133.9c-15.3-13.2-40.5-12.1-54,2.5c-9.3,10.1-10.9,19.5-10.9,29.9
	c0,32.8,64.9,86.9,64.9,86.9s64.9-54.1,64.9-86.9c0-10.6-1.6-19.7-10.9-29.9C292.5,121.9,267.3,120.7,252,133.9z"/>
</svg>