<?xml version="1.0" standalone="no"?>
<!DOCTYPE svg PUBLIC "-//W3C//DTD SVG 20010904//EN"
 "http://www.w3.org/TR/2001/REC-SVG-20010904/DTD/svg10.dtd">
<svg version="1.0" xmlns="http://www.w3.org/2000/svg"
 width="1069.951572pt" height="1555.008381pt" viewBox="0 0 1069.951572 1555.008381"
 preserveAspectRatio="xMidYMid meet">

<g transform="translate(-414.484635,1781.520860) scale(0.100000,-0.100000)"
fill="#bda68a" stroke="none">
<path d="M12205 17810 c-91 -12 -185 -44 -355 -125 -176 -84 -218 -99 -313
-116 -79 -13 -131 -7 -187 22 -38 20 -42 20 -65 5 -38 -25 -57 -81 -53 -151 4
-73 57 -192 112 -253 35 -38 37 -43 27 -79 -5 -21 -17 -89 -27 -151 -15 -98
-16 -124 -5 -190 17 -103 50 -176 90 -197 27 -14 31 -21 31 -58 0 -52 -23
-132 -54 -192 -44 -82 -77 -182 -74 -222 3 -34 8 -41 57 -70 34 -21 59 -44 67
-63 7 -16 27 -38 45 -49 30 -19 32 -23 33 -82 1 -58 3 -63 40 -95 36 -31 38
-36 33 -76 -5 -36 0 -55 29 -115 58 -122 103 -130 419 -68 20 4 40 0 61 -14
37 -23 167 -215 162 -239 -4 -21 -59 -28 -97 -13 -42 17 -95 22 -111 12 -11
-8 -16 -37 -20 -117 l-5 -107 -35 -13 c-19 -6 -96 -44 -170 -84 -201 -107
-214 -114 -351 -179 -80 -38 -135 -71 -152 -90 -31 -37 -53 -132 -66 -286 -13
-149 -41 -383 -50 -420 -11 -47 -43 -44 -134 14 -43 27 -87 57 -96 65 -10 9
-24 16 -33 16 -32 0 -73 64 -108 171 -32 98 -37 118 -55 199 -31 145 -80 211
-195 262 -55 25 -100 35 -212 48 -219 25 -317 114 -326 299 -7 133 32 264 99
329 42 41 69 46 136 24 147 -48 176 -54 229 -50 66 6 93 28 131 107 15 31 35
67 45 80 12 15 18 41 18 73 0 45 3 50 35 69 36 22 39 29 50 112 7 50 5 48 82
77 39 15 83 76 83 116 0 21 -17 48 -60 99 -96 113 -135 215 -110 291 7 20 39
76 72 125 83 124 102 181 102 299 0 100 -25 208 -61 261 -35 52 -120 110 -259
179 -149 72 -162 84 -199 169 -34 78 -182 179 -320 218 -22 7 -65 20 -95 29
-80 25 -303 25 -385 0 -127 -39 -181 -75 -343 -228 -57 -54 -113 -100 -126
-104 -14 -3 -38 3 -62 15 -48 26 -145 28 -206 4 -236 -92 -391 -362 -334 -581
16 -60 26 -82 83 -179 l24 -42 -23 -43 c-20 -37 -23 -57 -23 -153 0 -217 77
-362 257 -481 150 -100 255 -108 416 -32 73 35 92 33 111 -7 64 -133 -47 -548
-225 -841 -113 -186 -199 -284 -380 -429 -112 -91 -144 -126 -183 -207 -38
-78 -56 -146 -81 -313 -39 -255 -42 -273 -127 -625 -73 -305 -70 -293 -89
-400 -9 -52 -22 -126 -29 -165 -7 -38 -18 -104 -24 -145 -7 -41 -16 -102 -21
-135 -46 -288 -57 -562 -26 -655 24 -70 67 -133 109 -159 18 -11 118 -63 222
-115 105 -53 213 -108 240 -124 28 -15 100 -54 160 -86 169 -90 214 -119 215
-139 0 -25 -27 -76 -145 -272 -56 -93 -129 -215 -160 -270 -32 -55 -79 -136
-105 -180 -59 -102 -91 -159 -148 -265 -25 -47 -56 -102 -69 -122 -12 -21 -23
-39 -23 -41 0 -2 -22 -42 -49 -89 -26 -46 -63 -111 -81 -144 -49 -88 -68 -121
-118 -209 -25 -44 -59 -105 -75 -135 -28 -51 -105 -191 -150 -270 -53 -94
-158 -281 -242 -430 -51 -91 -103 -183 -115 -205 -65 -116 -162 -290 -205
-370 -26 -49 -60 -112 -75 -140 -15 -27 -47 -86 -70 -130 -24 -44 -69 -125
-100 -180 -75 -131 -141 -250 -230 -415 -90 -167 -98 -183 -280 -510 -81 -146
-180 -326 -220 -400 -71 -131 -408 -708 -478 -820 -19 -30 -49 -77 -67 -105
-17 -27 -83 -133 -145 -235 -204 -331 -508 -773 -689 -1000 -354 -444 -582
-690 -884 -956 -114 -100 -140 -152 -112 -221 19 -48 68 -81 270 -183 209
-106 507 -228 660 -270 17 -5 55 -16 85 -25 421 -124 626 -160 1151 -202 96
-8 131 12 178 102 44 85 50 87 199 50 220 -54 319 -76 487 -110 72 -14 148
-30 170 -35 123 -28 489 -82 875 -129 121 -15 376 -38 585 -53 252 -17 1371
-17 1610 0 337 25 770 64 900 82 221 31 295 41 345 50 30 5 98 16 150 25 195
34 395 72 708 136 79 16 148 27 153 24 5 -3 6 -54 2 -114 -6 -107 -6 -109 18
-124 53 -33 147 -42 419 -41 384 1 499 27 537 121 18 43 36 55 46 29 9 -23
137 -40 209 -27 34 6 65 16 70 23 8 13 3 89 -12 188 -12 75 -24 246 -22 294 2
23 17 64 35 95 29 51 31 63 31 143 -1 83 -2 90 -42 159 -23 39 -42 78 -42 87
0 8 28 45 63 81 141 150 111 293 -89 424 -47 31 -49 34 -52 84 -2 39 6 76 34
155 76 216 76 214 78 608 1 216 7 406 15 485 16 155 9 467 -13 595 -19 108
-64 317 -75 350 -5 14 -17 52 -26 85 -9 33 -25 85 -35 115 -63 193 -113 381
-137 510 -24 140 -37 708 -24 1090 14 427 32 601 86 830 14 58 31 137 38 175
17 90 32 93 124 27 132 -94 214 -132 289 -132 63 0 89 26 89 88 0 43 -8 63
-76 173 -102 168 -146 267 -188 424 -20 73 -55 312 -86 575 -9 74 -20 162 -25
195 -5 33 -16 119 -25 190 -8 72 -20 166 -25 211 -6 44 -13 131 -17 192 l-6
111 33 31 c30 28 233 166 325 220 22 13 112 71 200 129 244 162 340 268 399
441 37 108 41 161 40 480 -1 410 -18 603 -94 1065 -71 428 -69 400 -31 625 26
156 29 363 5 454 -37 143 -116 247 -264 346 -91 61 -136 87 -355 200 -77 40
-169 89 -205 110 -36 20 -101 56 -145 80 -44 23 -110 65 -147 92 -70 52 -168
151 -168 171 0 24 -88 193 -111 214 -13 12 -37 26 -52 32 -40 15 -97 14 -97
-2 0 -7 -25 -56 -56 -108 -53 -89 -118 -218 -214 -424 -23 -49 -55 -112 -72
-140 -48 -77 -66 -110 -140 -253 -38 -74 -88 -159 -111 -189 -23 -31 -55 -73
-71 -94 -23 -30 -30 -51 -31 -91 -8 -213 -16 -257 -62 -357 -51 -107 -153
-357 -153 -372 0 -6 -12 -36 -26 -67 -46 -101 -52 -116 -64 -157 -29 -93 -73
-180 -91 -180 -25 0 -29 73 -19 355 10 265 15 338 40 635 43 486 39 460 74
476 11 5 50 29 85 54 35 25 74 45 88 45 13 0 64 -18 113 -41 104 -48 116 -46
144 31 48 134 -31 300 -142 300 -53 0 -63 17 -26 48 16 13 56 48 89 77 33 29
98 85 145 126 47 41 159 131 250 200 91 70 171 134 179 142 15 18 12 34 -37
227 -24 93 -27 123 -27 270 1 143 4 176 24 245 41 139 61 246 67 366 7 110 -5
250 -26 303 -33 86 -49 119 -87 177 -52 80 -95 115 -177 143 l-61 21 -5 61
c-6 72 -19 91 -94 134 -132 75 -318 110 -481 90z m797 -3212 c65 -30 139 -101
157 -150 7 -18 19 -47 28 -64 13 -28 13 -36 -2 -79 -18 -55 -43 -94 -94 -148
-70 -75 -159 -100 -231 -64 -43 22 -49 21 -77 -5 l-23 -21 0 21 c0 11 5 24 10
27 6 3 10 15 10 25 0 24 -52 50 -102 50 -30 0 -47 8 -78 36 -47 43 -64 93 -58
175 5 73 38 124 110 171 77 51 102 58 203 55 73 -2 101 -7 147 -29z m-282
-627 c-38 -75 -60 -100 -60 -68 0 17 51 116 75 145 34 40 28 8 -15 -77z m-122
-69 c16 -21 19 -38 15 -74 -5 -40 -3 -47 16 -53 22 -7 29 -39 11 -50 -6 -4 -8
-14 -5 -24 3 -9 -1 -26 -9 -36 -14 -19 -15 -19 -35 -1 -26 24 -111 168 -111
189 0 22 57 77 80 77 10 0 28 -12 38 -28z m-1579 -22 c22 -11 88 -99 124 -164
32 -57 57 -137 57 -180 0 -54 -38 -153 -116 -310 -103 -207 -96 -199 -185
-201 -61 -2 -85 -8 -134 -34 -56 -29 -67 -31 -165 -31 -112 0 -153 -14 -182
-60 -7 -11 -49 -38 -94 -60 -112 -56 -153 -100 -205 -221 -46 -108 -51 -115
-124 -154 -61 -33 -92 -61 -111 -98 -19 -35 -10 -51 70 -137 65 -70 91 -128
99 -222 6 -65 36 -120 117 -215 74 -87 131 -133 165 -133 34 0 65 28 65 59 0
65 73 161 124 161 9 0 16 5 16 10 0 6 -11 10 -25 10 -35 0 -78 23 -108 60 -14
16 -29 30 -32 30 -3 0 -3 -20 0 -44 l7 -44 -55 -26 c-31 -14 -68 -26 -82 -26
-38 0 -80 25 -112 67 -23 30 -28 46 -28 97 l0 60 40 7 c22 3 68 9 101 12 l61
6 18 -39 c10 -22 22 -40 27 -40 12 0 10 24 -4 39 -11 10 -8 16 11 32 13 10 30
19 38 19 13 0 103 38 143 59 15 9 16 30 4 99 -7 46 -24 40 -24 -10 0 -52 -7
-64 -43 -77 -69 -26 -138 0 -185 69 -13 19 -27 36 -32 38 -5 2 -26 -9 -46 -25
-34 -25 -45 -28 -115 -28 -69 0 -80 3 -104 25 -66 62 -53 91 82 186 l52 36 53
-15 c29 -9 65 -18 81 -22 22 -4 27 -11 27 -35 0 -35 10 -38 35 -10 10 11 27
20 37 20 23 0 116 -46 143 -71 19 -17 24 -17 64 -3 24 8 63 17 88 21 l45 6 62
-66 62 -66 58 65 c55 62 59 64 105 64 31 0 65 -9 99 -26 51 -25 102 -74 102
-97 0 -7 -22 -43 -50 -81 -61 -84 -63 -102 -11 -116 21 -5 45 -8 54 -5 14 6
37 46 37 66 0 6 9 24 20 40 17 23 19 33 10 49 -6 11 -8 29 -5 40 10 30 -21 76
-80 120 -30 22 -55 47 -55 55 0 8 23 40 51 71 28 31 57 71 65 90 7 18 18 35
23 38 17 11 159 -64 191 -101 34 -39 35 -39 58 8 10 18 36 42 62 56 25 14 53
32 62 40 20 18 15 35 -7 26 -18 -6 -67 12 -115 44 -44 29 -63 29 -103 -1 -49
-37 -81 -42 -121 -17 -18 12 -39 34 -46 50 -9 23 -24 33 -78 51 -128 43 -162
67 -162 116 0 26 10 44 43 79 51 53 85 58 123 20 14 -14 33 -25 43 -25 10 0
29 -9 43 -20 22 -16 30 -18 61 -8 60 18 167 -25 167 -68 0 -22 18 -25 44 -9
64 42 148 -27 162 -134 9 -73 39 -100 101 -93 27 3 54 -1 69 -8 37 -20 83
-100 90 -156 9 -66 18 -80 64 -104 68 -35 70 -70 9 -149 -24 -30 -24 -50 1
-81 13 -16 20 -41 20 -69 0 -25 5 -59 12 -77 9 -26 8 -38 -5 -67 -10 -19 -17
-54 -17 -76 0 -51 -22 -107 -57 -143 -30 -32 -62 -35 -98 -12 -30 20 -38 15
-55 -36 -24 -73 -86 -106 -152 -81 -13 5 -42 24 -66 42 -100 80 -97 79 -159
79 -83 0 -103 16 -103 85 0 31 8 73 19 98 24 55 12 73 -39 62 -24 -5 -36 -18
-56 -56 -36 -71 -57 -89 -105 -89 -51 0 -102 23 -134 62 -33 39 -32 53 10 123
20 32 32 62 27 67 -4 4 -23 3 -40 -3 -49 -17 -101 -3 -139 37 -40 43 -57 36
-49 -17 19 -127 20 -119 -10 -150 -38 -39 -73 -38 -118 5 -32 30 -36 39 -36
84 0 28 5 54 10 57 18 11 10 43 -15 59 -32 21 -49 13 -34 -16 6 -12 9 -47 7
-81 -4 -50 -9 -64 -31 -81 -31 -25 -34 -36 -9 -36 10 0 39 -13 65 -30 36 -23
47 -36 47 -55 0 -37 -53 -146 -84 -172 -39 -34 -34 -51 15 -49 36 1 45 -4 70
-34 36 -43 39 -87 7 -99 -13 -5 -52 -14 -87 -21 -35 -6 -80 -21 -100 -34 -112
-69 -215 -94 -283 -67 -211 83 -413 180 -458 220 l-32 28 17 79 c29 132 36
213 30 341 -7 141 -15 173 -79 343 -110 288 -179 433 -353 742 -23 43 -43 84
-43 93 0 49 90 165 244 313 119 114 217 182 327 229 59 25 75 28 189 27 118 0
130 -2 221 -36 52 -20 156 -68 231 -107 74 -39 146 -71 159 -71 32 0 65 35
178 192 88 122 117 158 127 158 3 0 13 -4 23 -10z m-1988 -717 c7 -21 21 -54
32 -73 41 -73 108 -189 172 -300 88 -151 264 -510 308 -630 47 -126 61 -205
54 -293 -6 -79 -37 -189 -55 -195 -18 -6 -100 42 -352 203 -129 83 -259 166
-287 184 -88 55 -103 80 -103 169 0 41 7 105 15 141 25 104 33 141 49 211 19
83 44 194 56 245 19 84 39 183 51 255 21 128 37 150 60 83z m1842 -233 c21
-17 25 -26 20 -53 -4 -29 -1 -37 30 -60 19 -14 52 -34 73 -43 114 -48 124 -55
149 -94 35 -55 34 -117 -2 -161 -35 -41 -82 -61 -162 -68 -61 -6 -65 -8 -72
-35 -11 -38 -37 -66 -65 -66 -12 0 -39 15 -58 34 -31 29 -36 40 -36 78 0 35 6
50 25 68 30 28 32 51 6 74 -17 15 -18 27 -14 97 6 75 5 79 -15 79 -11 0 -23
-8 -27 -18 -7 -26 -46 -41 -116 -49 -35 -3 -59 -11 -59 -18 0 -6 19 -22 43
-35 65 -36 117 -94 117 -131 0 -83 -64 -134 -169 -133 -57 0 -82 11 -144 61
-19 15 -42 23 -68 23 -39 0 -111 29 -124 51 -15 23 12 31 50 15 69 -29 97 -22
153 38 68 76 92 124 92 192 0 104 52 148 146 125 41 -11 49 -9 102 19 67 35
90 37 125 10z m-458 -130 c3 -5 9 -32 12 -60 10 -86 -46 -190 -103 -190 -12 0
-45 21 -73 48 -65 61 -68 89 -12 142 54 52 159 87 176 60z m517 -973 c68 -47
108 -96 108 -133 0 -30 13 -31 33 0 19 29 79 58 123 59 26 1 42 -7 69 -33 42
-41 43 -52 8 -99 -38 -51 -74 -80 -101 -81 -30 0 -86 43 -113 87 l-21 34 -36
-35 c-57 -57 -140 -60 -214 -8 -50 36 -71 81 -63 135 20 123 96 150 207 74z
m255 -539 c17 -14 16 -33 -2 -48 -10 -8 -15 -25 -13 -44 3 -29 1 -31 -32 -32
-36 -1 -70 20 -70 42 0 7 12 34 28 59 23 40 30 45 52 40 14 -4 31 -11 37 -17z
m-1597 -179 c63 -16 219 -54 345 -84 335 -79 316 -72 404 -162 65 -67 84 -80
130 -93 59 -16 70 -29 49 -63 -8 -12 -29 -62 -47 -112 -18 -49 -56 -148 -83
-220 -71 -183 -71 -181 -13 -206 26 -11 77 -24 113 -27 65 -7 67 -8 84 -44 20
-43 50 -62 79 -53 16 5 19 12 15 30 -7 28 13 77 28 72 6 -2 12 -24 14 -49 3
-50 22 -77 39 -56 12 16 29 99 48 248 21 155 44 277 62 322 12 30 20 37 46 40
29 3 32 6 35 43 2 30 12 49 40 78 32 33 37 44 37 85 0 38 6 55 28 81 24 29 27
38 21 81 -5 41 -3 50 17 69 12 11 26 21 31 21 4 0 8 -25 8 -56 0 -44 5 -62 25
-88 28 -37 32 -77 12 -127 -20 -48 -9 -225 16 -262 10 -15 48 -50 86 -77 l68
-50 22 -82 c36 -137 78 -308 96 -388 65 -296 145 -588 259 -940 35 -107 82
-253 105 -325 23 -71 46 -139 50 -150 19 -43 171 -515 171 -529 0 -5 18 -68
40 -140 71 -229 88 -288 120 -411 17 -66 40 -151 52 -189 19 -67 27 -95 83
-301 40 -149 58 -217 124 -475 34 -129 75 -287 92 -350 17 -63 35 -131 39
-150 5 -19 33 -134 65 -255 65 -256 189 -750 204 -815 27 -121 46 -199 86
-360 24 -96 51 -200 59 -230 9 -30 18 -66 22 -80 74 -290 254 -807 351 -1008
30 -62 52 -120 49 -127 -21 -56 -633 -258 -1011 -334 -22 -5 -85 -18 -140 -29
-55 -11 -163 -32 -240 -46 -77 -15 -162 -31 -190 -36 -51 -10 -83 -15 -315
-49 -142 -20 -275 -37 -375 -46 -33 -3 -98 -10 -145 -15 -108 -12 -382 -36
-575 -50 -398 -29 -1250 -29 -1620 0 -204 16 -459 39 -545 50 -41 5 -133 17
-205 25 -71 9 -150 20 -175 25 -25 5 -70 12 -100 15 -30 3 -77 10 -105 15 -27
5 -90 16 -140 25 -161 27 -209 36 -280 50 -38 8 -106 22 -150 31 -214 42 -563
127 -705 170 -63 20 -131 40 -150 45 -19 6 -44 14 -55 18 -19 8 -87 35 -130
51 -88 33 -90 37 -47 102 55 84 184 274 246 363 397 572 616 936 846 1400 179
363 217 443 305 640 7 17 28 62 45 100 40 86 166 398 226 560 25 66 51 136 59
155 39 99 87 245 185 550 39 124 75 236 80 250 4 14 16 52 25 85 9 33 21 74
26 90 72 231 104 374 89 389 -10 10 -28 -27 -74 -154 -15 -41 -34 -91 -41
-110 -7 -19 -37 -98 -66 -175 -28 -77 -57 -153 -65 -170 -7 -16 -37 -93 -67
-170 -57 -145 -106 -261 -150 -355 -36 -75 -166 -369 -230 -515 -54 -126 -322
-663 -412 -825 -29 -52 -69 -126 -89 -163 -68 -125 -114 -206 -180 -317 -28
-47 -60 -101 -71 -120 -11 -20 -56 -95 -100 -168 -44 -73 -87 -144 -95 -157
-98 -162 -368 -555 -579 -843 -190 -260 -226 -312 -257 -380 -30 -66 -30 -98
0 -143 22 -32 173 -151 210 -165 9 -3 16 -13 16 -20 0 -16 -44 -13 -180 12
-68 12 -106 20 -250 53 -131 31 -371 108 -520 168 -159 64 -389 174 -390 187
0 10 79 102 191 220 41 45 102 110 134 146 32 36 74 83 94 105 228 251 608
742 787 1018 49 75 131 201 182 280 108 163 439 698 517 832 28 50 76 133 105
185 87 155 89 159 175 310 45 80 91 161 102 180 57 101 79 141 110 200 20 36
46 83 58 105 12 22 44 81 70 130 66 125 136 256 220 410 64 117 85 156 128
232 24 43 66 119 92 168 27 50 92 169 145 265 53 96 119 216 145 265 26 50 59
110 73 135 14 25 57 104 97 175 39 72 88 161 109 198 20 37 46 84 58 105 11
20 39 71 61 112 64 119 179 324 187 335 4 6 96 168 204 362 108 194 214 382
236 418 22 36 40 67 40 69 0 2 33 60 73 127 40 68 91 158 113 199 22 41 70
127 106 190 107 188 136 240 184 335 56 109 71 128 99 120 11 -3 72 -19 135
-36z"/>
<path d="M11794 12415 c-3 -8 8 -37 25 -65 17 -28 31 -62 31 -76 0 -28 -46
-78 -83 -90 -12 -4 -55 -22 -95 -40 -102 -47 -118 -50 -131 -26 -18 34 -12 94
14 144 33 61 32 72 -9 97 -19 12 -37 28 -40 36 -10 26 -25 16 -46 -27 -24 -51
-50 -81 -108 -126 -48 -39 -53 -52 -17 -52 15 0 40 -7 58 -16 46 -24 147 -105
147 -118 0 -14 -28 -57 -54 -81 -18 -18 -17 -19 13 -44 51 -42 59 -106 24
-197 -8 -22 15 -17 54 13 31 24 45 27 107 28 62 0 74 -3 95 -23 25 -26 37 -21
43 18 3 24 38 53 118 97 19 11 36 28 38 39 3 19 -55 104 -70 104 -5 0 -18 -21
-29 -47 -61 -143 -201 -177 -283 -70 -74 97 -19 199 122 226 62 12 64 12 89
-13 39 -40 76 -30 53 14 -9 17 -5 27 25 63 35 40 36 44 30 96 -10 79 -19 97
-64 126 -47 29 -50 30 -57 10z"/>
</g>
</svg>
